# AST/ASF file generated using VICON BodyLanguage
# -----------------------------------------------
:version 1.10
:name VICON
:units
  mass 1.0
  length 0.45
  angle deg
:documentation
   .ast/.asf automatically generated from VICON data using
   VICON BodyBuilder and BodyLanguage model FoxedUp or BRILLIANT.MOD
:root
   order TX TY TZ RX RY RZ
   axis XYZ
   position 0 0 0  
   orientation 0 0 0 
:bonedata
  begin
     id 1 
     name lhipjoint
     direction 0.624716 -0.669793 0.401383 
     length 2.38238 
     axis 0 0 0  XYZ
  end
  begin
     id 2 
     name lfemur
     direction 0.34202 -0.939693 0  
     length 6.4574  
     axis 0 0 20  XYZ
    dof rx ry rz
    limits (-160.0 20.0)
           (-70.0 70.0)
           (-60.0 70.0)
  end
  begin
     id 3 
     name ltibia
     direction 0.34202 -0.939693 0   
     length 7.68739   
     axis 0 0 20   XYZ
    dof rx
    limits (-10.0 170.0)
  end
  begin
     id 4 
     name lfoot
     direction 0.0681309 -0.187188 0.979959   
     length 2.46615   
     axis -90 7.62852e-016 20   XYZ
    dof rx rz
    limits (-45.0 90.0)
           (-70.0 20.0)
  end
  begin
     id 5 
     name ltoes
     direction 1.53566e-011 -4.21819e-011 1   
     length 1.2376   
     axis -90 7.62852e-016 20   XYZ
    dof rx
    limits (-90.0 20.0)
  end
  begin
     id 6 
     name rhipjoint
     direction -0.644473 -0.655875 0.393043   
     length 2.43293  
     axis 0 0 0  XYZ 
  end
  begin
     id 7 
     name rfemur
     direction -0.34202 -0.939693 0   
     length 6.7025   
     axis 0 0 -20   XYZ
    dof rx ry rz
    limits (-160.0 20.0)
           (-70.0 70.0)
           (-70.0 60.0)
  end
  begin
     id 8 
     name rtibia
     direction -0.34202 -0.939693 0   
     length 7.80547   
     axis 0 0 -20   XYZ
    dof rx
    limits (-10.0 170.0)
 end
 begin
     id 9 
     name rfoot
     direction -0.0756734 -0.207911 0.975216   
     length 2.40315  
     axis -90 -7.62852e-016 -20   XYZ
    dof rx rz
    limits (-45.0 90.0)
           (-20.0 70.0)
  end
  begin
     id 10 
     name rtoes
     direction -1.5353e-011 -4.21879e-011 1   
     length 1.20477   
     axis -90 -7.62852e-016 -20   XYZ
    dof rx
    limits (-90.0 20.0)
  end
  begin
     id 11 
     name lowerback
     direction 0.0160353 0.987463 -0.157037   
     length 2.18572   
     axis 0 0 0   XYZ
    dof rx ry rz
    limits (-20.0 45.0)
           (-30.0 30.0)
           (-30.0 30.0)
  end
  begin
     id 12 
     name upperback
     direction -0.00499661 0.999756 0.0215076   
     length 2.18016   
     axis 0 0 0   XYZ
    dof rx ry rz
    limits (-20.0 45.0)
           (-30.0 30.0)
           (-30.0 30.0)
  end
  begin
     id 13 
     name thorax
     direction -0.00921346 0.995333 0.0960619   
     length 2.24923   
     axis 0 0 0   XYZ
    dof rx ry rz
    limits (-20.0 45.0)
           (-30.0 30.0)
           (-30.0 30.0)
  end
  begin
     id 14 
     name lowerneck
     direction 0.0274184 0.991181 0.12965   
     length 1.70911   
     axis 0 0 0   XYZ
    dof rx ry rz
    limits (-20.0 45.0)
           (-30.0 30.0)
           (-30.0 30.0)
  end
  begin
     id 15 
     name upperneck
     direction 0.0015627 0.999959 -0.00893559   
     length 1.69312   
     axis 0 0 0   XYZ
    dof rx ry rz
    limits (-20.0 45.0)
           (-30.0 30.0)
           (-30.0 30.0)
  end
  begin
     id 16
     name head
     direction -0.00230242 0.999856 -0.0168327  
     length 1.80241  
     axis 0 0 0   XYZ
    dof rx ry rz
    limits (-20.0 45.0)
           (-30.0 30.0)
           (-30.0 30.0)
  end
  begin
     id 17 
     name lclavicle
     direction 0.955523 0.290741 -0.0494489  
     length 3.84275  
     axis 0 0 0   XYZ
    dof ry rz
    limits (-20.0 10.0)
           (0.0 20.0)
  end
  begin
     id 18 
     name lhumerus
     direction 1 -4.48967e-011 -3.18382e-028   
     length 5.17714   
     axis 180 -30 -90   XYZ
    dof rx ry rz
    limits (-60.0 90.0)
           (-90.0 90.0)
           (-90.0 90.0)
  end
  begin
     id 19
     name lradius
     direction 1 -4.48968e-011 -2.22911e-027   
     length 3.43679   
     axis 180 -30 -90   XYZ
    dof rx
    limits (-10.0 170.0)
  end
  begin
     id 20
     name lwrist
     direction 1 -4.48951e-011 -6.32245e-027   
     length 1.7184   
     axis 3.57107e-015 90 90   XYZ
    dof ry
    limits (-180.0 0.0)
 end
  begin
     id 21 
     name lhand
     direction 1 -4.48924e-011 -1.26431e-026   
     length 0.573117   
     axis 8.06912e-015 90 90   XYZ
    dof rx rz
    limits (-90.0 90.0)
           (-45.0 45.0)
  end
  begin
     id 22 
     name lfingers
     direction 1 -4.49001e-011 -2.52965e-026   
     length 0.462062   
     axis 1.61381e-014 90 90   XYZ
    dof rx
    limits (0.0 90.0)
  end
  begin
     id 23
     name lthumb
     direction 0.707107 -6.35008e-011 0.707107   
     length 0.663431   
     axis -90 45 -1.62303e-014   XYZ
    dof rx rz
    limits (-45.0 45.0)
           (-45.0 45.0)
  end
  begin
     id 24 
     name rclavicle
     direction -0.963917 0.256881 -0.0698287   
     length 3.73057  
     axis 0 0 0   XYZ 
    dof ry rz
    limits (-10.0 20.0)
           (-20.0 0.0)
  end
  begin
     id 25 
     name rhumerus
     direction -1 -4.48962e-011 -2.73982e-027  
     length 5.23908   
     axis 180 30 90   XYZ
    dof rx ry rz
    limits (-90.0 60.0)
           (-90.0 90.0)
           (-90.0 90.0)
  end
  begin
     id 26 
     name rradius
     direction -1 -4.48968e-011 -4.33218e-027   
     length 3.46485   
     axis 180 30 90   XYZ
    dof rx
    limits (-10.0 170.0)
  end
  begin
     id 27 
     name rwrist
     direction -1 -4.48989e-011 -6.32372e-027   
     length 1.73243   
     axis 3.57107e-015 -90 -90   XYZ
    dof ry
    limits (-180.0 0.0)
  end
  begin
     id 28
     name rhand
     direction -1 -4.48948e-011 -1.26448e-026   
     length 0.608752   
     axis 8.06912e-015 -90 -90   XYZ
    dof rx rz
    limits (-90.0 90.0)
           (-45.0 45.0)
  end
  begin
     id 29
     name rfingers
     direction -1 -4.48962e-011 -2.52913e-026   
     length 0.490792   
     axis 1.61381e-014 -90 -90   XYZ
    dof rx
    limits (0.0 90.0)
  end
  begin
     id 30
     name rthumb
     direction -0.707107 -6.34878e-011 0.707107   
     length 0.704682   
     axis -90 -45 1.62303e-014   XYZ
    dof rx rz
    limits (-45.0 45.0)
           (-45.0 45.0)
  end
:hierarchy
  begin
    root lhipjoint rhipjoint lowerback
    lhipjoint lfemur
    lfemur ltibia
    ltibia lfoot
    lfoot ltoes
    rhipjoint rfemur
    rfemur rtibia
    rtibia rfoot
    rfoot rtoes
    lowerback upperback
    upperback thorax
    thorax lowerneck lclavicle rclavicle
    lowerneck upperneck
    upperneck head
    lclavicle lhumerus
    lhumerus lradius
    lradius lwrist
    lwrist lhand lthumb
    lhand lfingers
    rclavicle rhumerus
    rhumerus rradius
    rradius rwrist
    rwrist rhand rthumb
    rhand rfingers
  end

#!OML:ASF G:\JayActor3\Patient Classification 1\Patient 1\Session 6\male.ASF
:FULLY-SPECIFIED
:DEGREES
492
root 44.2796 14.7838 -25.2024 2.96548 -48.957 2.52001
lowerback 24.9866 -3.35902 1.34764
upperback 7.06133 -4.15843 1.56935
thorax -6.01209 -2.14085 2.17341
lowerneck -5.59094 0.489427 7.4506
upperneck 14.8858 0.471277 -5.22193
head 5.42404 0.240019 -2.84603
rclavicle -6.95746e-015 -2.34566e-014
rhumerus -26.5787 15.4466 -85.9434
rradius 124.584
rwrist 18.8025
rhand 18.9934 -19.1885
rfingers 7.12502
rthumb 43.5962 -43.2203
lclavicle -6.95746e-015 -2.34566e-014
lhumerus -37.0731 -10.646 89.4728
lradius 111.95
lwrist 3.53652
lhand 1.59775 37.7312
lfingers 7.12502
lthumb 27.1198 65.803
rfemur -46.8725 -8.22626 20.7523
rtibia 60.6029
rfoot -21.1459 -18.8988
rtoes 0.369403
lfemur -20.2483 22.3519 -3.94894
ltibia 74.8361
lfoot -3.53122 5.27894
ltoes 3.26248
493
root 44.1885 14.7531 -25.1917 2.77 -48.6829 2.71231
lowerback 25.2076 -3.24259 1.49277
upperback 7.10095 -3.95472 1.7722
thorax -6.07636 -2.04447 2.26477
lowerneck -5.44941 0.287989 7.41025
upperneck 14.6669 0.242324 -5.42623
head 5.31512 0.114523 -2.91461
rclavicle 1.98785e-015 -4.13472e-014
rhumerus -26.5486 15.0906 -85.687
rradius 124.626
rwrist 18.8882
rhand 18.8306 -19.2556
rfingers 7.12502
rthumb 43.4442 -43.3427
lclavicle 1.98785e-015 -4.13472e-014
lhumerus -36.6603 -11.1205 89.3777
lradius 111.848
lwrist 3.69809
lhand 1.58773 37.7016
lfingers 7.12502
lthumb 27.1102 65.7749
rfemur -46.9041 -8.43326 20.7963
rtibia 61.3671
rfoot -21.7519 -18.9809
rtoes 0.198835
lfemur -22.1728 22.771 -4.02973
ltibia 77.2168
lfoot -4.11881 5.07508
ltoes 2.5785
494
root 44.0983 14.7202 -25.1801 2.5416 -48.4333 2.91931
lowerback 25.4274 -3.11504 1.61145
upperback 7.15088 -3.74386 1.96919
thorax -6.12776 -1.94508 2.36152
lowerneck -5.31137 0.0905854 7.36769
upperneck 14.4578 0.0172667 -5.62786
head 5.20993 -0.00879488 -2.98106
rclavicle -5.76476e-014 4.8901e-014
rhumerus -26.5216 14.7376 -85.4504
rradius 124.663
rwrist 18.9366
rhand 18.5733 -19.3639
rfingers 7.12502
rthumb 43.2038 -43.5374
lclavicle -5.76476e-014 4.8901e-014
lhumerus -36.2346 -11.5755 89.2529
lradius 111.756
lwrist 3.87976
lhand 1.57551 37.6675
lfingers 7.12502
lthumb 27.0985 65.7425
rfemur -46.9214 -8.62623 20.8208
rtibia 62.1472
rfoot -22.3831 -19.042
rtoes 0.0566924
lfemur -24.0911 23.2396 -4.16705
ltibia 79.5127
lfoot -4.70016 4.81372
ltoes 1.77035
495
root 44.0094 14.6855 -25.1672 2.29116 -48.1983 3.13651
lowerback 25.6412 -2.98479 1.71121
upperback 7.20932 -3.53458 2.16635
thorax -6.16595 -1.84687 2.4684
lowerneck -5.16081 -0.10039 7.33594
upperneck 14.2358 -0.197354 -5.85493
head 5.09903 -0.127741 -3.0557
rclavicle 1.08536e-013 -2.8625e-014
rhumerus -26.4834 14.394 -85.2168
rradius 124.69
rwrist 18.9767
rhand 18.311 -19.4765
rfingers 7.12502
rthumb 42.9586 -43.737
lclavicle 1.08536e-013 -2.8625e-014
lhumerus -35.8032 -11.9928 89.1065
lradius 111.679
lwrist 4.0702
lhand 1.56446 37.6334
lfingers 7.12502
lthumb 27.088 65.7101
rfemur -46.9284 -8.8245 20.8281
rtibia 62.9374
rfoot -23.0283 -19.0727
rtoes -0.0656302
lfemur -26.0144 23.7429 -4.37034
ltibia 81.7238
lfoot -5.27682 4.50698
ltoes 0.929425
496
root 43.9215 14.649 -25.1528 2.04111 -47.973 3.33875
lowerback 25.8436 -2.85241 1.83348
upperback 7.27156 -3.318 2.35254
thorax -6.19681 -1.74541 2.54692
lowerneck -5.01463 -0.290735 7.32064
upperneck 14.0337 -0.41435 -6.08107
head 4.99464 -0.246652 -3.13241
rclavicle -2.74323e-014 -4.69132e-014
rhumerus -26.4536 14.0134 -85.0009
rradius 124.707
rwrist 19.0478
rhand 18.0939 -19.5659
rfingers 7.12502
rthumb 42.7555 -43.8977
lclavicle -2.74323e-014 -4.69132e-014
lhumerus -35.3712 -12.4135 88.9326
lradius 111.608
lwrist 4.27076
lhand 1.5476 37.6043
lfingers 7.12502
lthumb 27.0719 65.6835
rfemur -46.9219 -9.03112 20.8365
rtibia 63.7295
rfoot -23.7136 -19.067
rtoes -0.10877
lfemur -27.9497 24.2741 -4.62877
ltibia 83.8495
lfoot -5.85354 4.165
ltoes 0.0758765
497
root 43.8348 14.6108 -25.1368 1.80605 -47.754 3.51307
lowerback 26.0315 -2.71975 1.98221
upperback 7.33531 -3.0948 2.53642
thorax -6.22065 -1.64104 2.60439
lowerneck -4.85817 -0.481941 7.33191
upperneck 13.832 -0.633557 -6.32389
head 4.88796 -0.365929 -3.21805
rclavicle 5.40694e-014 -5.40694e-014
rhumerus -26.4244 13.5969 -84.7846
rradius 124.714
rwrist 19.1591
rhand 17.9706 -19.6125
rfingers 7.12502
rthumb 42.6401 -43.9844
lclavicle 5.40694e-014 -5.40694e-014
lhumerus -34.9435 -12.8275 88.7414
lradius 111.544
lwrist 4.46479
lhand 1.53217 37.5818
lfingers 7.12502
lthumb 27.0571 65.6633
rfemur -46.9064 -9.2529 20.8579
rtibia 64.5175
rfoot -24.408 -19.0359
rtoes -0.153015
lfemur -29.9071 24.8254 -4.94152
ltibia 85.8877
lfoot -6.44149 3.80323
ltoes -0.849398
